<?xml version="1.0" encoding="UTF-8" standalone="no"?>
<!-- Created with Inkscape (http://www.inkscape.org/) -->
<svg
   xmlns:dc="http://purl.org/dc/elements/1.1/"
   xmlns:cc="http://creativecommons.org/ns#"
   xmlns:rdf="http://www.w3.org/1999/02/22-rdf-syntax-ns#"
   xmlns:svg="http://www.w3.org/2000/svg"
   xmlns="http://www.w3.org/2000/svg"
   xmlns:sodipodi="http://sodipodi.sourceforge.net/DTD/sodipodi-0.dtd"
   xmlns:inkscape="http://www.inkscape.org/namespaces/inkscape"
   width="170"
   height="260"
   id="svg2"
   sodipodi:version="0.32"
   inkscape:version="0.46"
   sodipodi:docbase="/home/doudoune/Desktop/Datas/Projs/Cliparts Stocker"
   sodipodi:docname="arbre_modern.svg"
   inkscape:export-filename="/datas/Projs/Cliparts Stocker/arbre_modern.png"
   inkscape:export-xdpi="90.000000"
   inkscape:export-ydpi="90.000000"
   inkscape:output_extension="org.inkscape.output.svg.inkscape"
   version="1.0">
  <defs
     id="defs4">
    <inkscape:perspective
       sodipodi:type="inkscape:persp3d"
       inkscape:vp_x="0 : 156.25 : 1"
       inkscape:vp_y="0 : 1000 : 0"
       inkscape:vp_z="225 : 156.25 : 1"
       inkscape:persp3d-origin="112.5 : 104.16667 : 1"
       id="perspective23" />
  </defs>
  <sodipodi:namedview
     id="base"
     pagecolor="#ffffff"
     bordercolor="#666666"
     borderopacity="1.0"
     inkscape:pageopacity="0.0"
     inkscape:pageshadow="2"
     inkscape:zoom="1.9115385"
     inkscape:cx="85"
     inkscape:cy="130"
     inkscape:document-units="px"
     inkscape:current-layer="layer1"
     inkscape:window-width="1024"
     inkscape:window-height="693"
     inkscape:window-x="198"
     inkscape:window-y="198"
     showgrid="false" />
  <metadata
     id="metadata7">
    <rdf:RDF>
      <cc:Work
         rdf:about="">
        <dc:format>image/svg+xml</dc:format>
        <dc:type
           rdf:resource="http://purl.org/dc/dcmitype/StillImage" />
        <dc:title>Arbre Modern</dc:title>
        <dc:date>2005-07-31</dc:date>
        <dc:creator>
          <cc:Agent>
            <dc:title>Jean-Victor Balin</dc:title>
          </cc:Agent>
        </dc:creator>
        <dc:description>jean.victor.balin@gmail.com</dc:description>
        <cc:license
           rdf:resource="http://creativecommons.org/licenses/publicdomain/" />
        <dc:language>fr-FR</dc:language>
        <dc:subject>
          <rdf:Bag>
            <rdf:li>tree</rdf:li>
            <rdf:li>garden</rdf:li>
            <rdf:li>forest</rdf:li>
          </rdf:Bag>
        </dc:subject>
      </cc:Work>
      <cc:License
         rdf:about="http://creativecommons.org/licenses/publicdomain/">
        <cc:permits
           rdf:resource="http://creativecommons.org/ns#Reproduction" />
        <cc:permits
           rdf:resource="http://creativecommons.org/ns#Distribution" />
        <cc:permits
           rdf:resource="http://creativecommons.org/ns#DerivativeWorks" />
      </cc:License>
    </rdf:RDF>
  </metadata>
  <g
     inkscape:label="Calque 1"
     inkscape:groupmode="layer"
     id="layer1">
    <path
       id="path1368"
       d=""
       style="fill:#252525" />
    <path
       id="path1366"
       d=""
       style="fill:#000000" />
    <g
       id="g2419"
       transform="translate(-27.499998,-26.25)">
      <g
         style="fill:#007b00;fill-opacity:1"
         id="g6534">
        <path
           id="path3608"
           d="M 154,43.5 C 152.88315,43.474753 146.68928,43.577561 144.21875,44.125 C 142.70895,44.459555 141.89612,44.689675 141.5,45 C 141.40097,45.077581 141.32322,45.174763 141.28125,45.28125 C 141.23928,45.387737 141.25223,45.488901 141.28125,45.59375 C 141.33929,45.803448 141.4966,45.982592 141.6875,46.1875 C 141.76719,46.273033 141.93022,46.517209 142.125,46.84375 C 142.31978,47.170291 142.55303,47.597383 142.78125,48.03125 C 143.2377,48.898984 143.67855,49.858275 143.90625,50.46875 C 144.37339,51.721056 144.71449,52.571825 145,53.15625 C 145.28551,53.740675 145.5329,54.070302 145.84375,54.25 C 145.85415,54.250883 145.8646,54.250883 145.875,54.25 C 145.86863,54.247168 145.88811,54.27208 145.90625,54.28125 C 145.91834,54.287363 145.91775,54.273261 145.9375,54.28125 C 145.94504,54.284266 145.96045,54.309456 145.96875,54.3125 C 145.98258,54.317574 145.97794,54.304724 146,54.3125 C 146.04413,54.328053 146.10829,54.378556 146.1875,54.40625 C 146.34592,54.461639 146.58706,54.520921 146.875,54.625 C 147.45088,54.833158 148.26195,55.134173 149.25,55.53125 C 151.2261,56.325404 153.89084,57.501544 156.65625,59 C 162.18708,61.996912 168.118,66.342351 169.9375,71.6875 C 171.65838,76.742944 171.00414,81.251963 169.84375,84.59375 C 169.26356,86.264643 168.55693,87.652552 167.96875,88.65625 C 167.38057,89.659948 166.9148,90.272651 166.78125,90.46875 C 166.50414,90.875639 166.3131,91.218972 166.21875,91.5 C 166.17157,91.640514 166.13525,91.779912 166.15625,91.90625 C 166.16675,91.969419 166.1916,92.009697 166.25,92.0625 C 166.3084,92.115303 166.40019,92.15625 166.46875,92.15625 C 166.5308,92.156247 166.54381,92.133377 166.5625,92.125 C 166.58119,92.116623 166.60848,92.103488 166.625,92.09375 C 166.65804,92.074273 166.67555,92.061579 166.71875,92.03125 C 166.80514,91.970593 166.93049,91.884609 167.0625,91.78125 C 167.32653,91.574532 167.6699,91.277862 168.03125,90.96875 C 168.73799,90.364188 172.07617,87.708827 172.4375,87.4375 C 172.65893,87.271225 173.44161,86.573277 174.21875,85.90625 C 174.99589,85.239223 175.75008,84.615347 175.8125,84.5625 C 178.88307,81.962569 182.64953,78.05447 184.3125,75.4375 C 185.69967,73.254557 187.86238,69.351117 186.65625,61.875 C 186.20616,59.085175 184.85158,56.499164 183.40625,54.4375 C 181.96092,52.375836 180.43395,50.832312 179.625,50.1875 C 179.39264,50.008699 175.33114,46.867622 170.15625,45.28125 C 166.85176,44.268253 161.23907,43.663655 154,43.5 z"
           style="fill:#007b00;stroke:none;stroke-width:2.13000011;stroke-linecap:round;stroke-linejoin:round;stroke-miterlimit:4;stroke-opacity:1" />
        <path
           id="path3604"
           d="M 133.65625,49.375 C 126.184,49.460409 121.46306,49.722484 111.4375,51.96875 C 103.85614,53.667389 94.428584,57.424805 84.28125,62.46875 C 79.261797,64.963779 74.826716,67.431544 71.5625,69.375 C 69.930392,70.346728 68.587288,71.204313 67.59375,71.84375 C 66.600212,72.483187 65.975534,72.918426 65.71875,73.125 C 65.34037,73.429389 63.052883,75.085301 60.46875,77.25 C 57.884617,79.414699 54.977805,82.091404 53.28125,84.59375 C 52.289881,86.055975 51.320558,88.023758 50.625,89.96875 C 49.929442,91.913742 49.502442,93.829588 49.625,95.3125 C 49.863019,98.192458 51.56408,100.69195 54.0625,103.28125 C 55.073487,104.32902 56.062651,105.11941 56.59375,105.40625 C 59.976978,107.23352 63.162284,107.86942 64.53125,107.96875 C 67.516246,108.18537 79.498667,107.83806 95.03125,102 C 99.079244,100.47852 103.87866,98.342478 107.875,96.46875 C 111.87134,94.595022 115.04445,93.025392 115.90625,92.53125 C 122.3059,88.861764 127.8727,84.292984 132.03125,80.375 C 136.1898,76.457016 138.91522,73.221728 139.71875,72 C 140.2198,71.238167 141.43682,69.569668 142.1875,68.0625 C 142.93232,66.567043 144.44477,62.991901 144.8125,60.59375 C 144.99295,59.416891 144.88239,57.855507 144.875,57.5625 C 144.87543,57.552088 144.87543,57.541662 144.875,57.53125 C 144.6938,55.654897 144.3766,53.696118 142.34375,52.25 C 138.95247,49.837535 135.61471,49.515146 133.6875,49.375 C 133.67709,49.374571 133.66666,49.374571 133.65625,49.375 L 133.65625,49.375 z"
           style="fill:#007b00;stroke:none;stroke-width:2.13000011;stroke-linecap:round;stroke-linejoin:round;stroke-miterlimit:4;stroke-opacity:1" />
        <path
           id="path3612"
           d="M 150.96875,67.625 C 149.37022,67.597017 148.18992,67.67296 147.9375,67.6875 C 147.91668,67.686562 147.89582,67.686562 147.875,67.6875 C 145.95059,67.962246 144.89524,68.103145 144.15625,68.3125 C 143.41726,68.521855 142.96717,68.892661 142.5625,69.3125 C 141.68607,70.221745 140.97088,71.508772 139.5,73.75 C 138.6291,75.077007 135.56036,78.490445 131.46875,82.15625 C 127.37714,85.822055 122.24931,89.791278 117.1875,92.5 C 108.0221,97.404676 98.271693,101.5072 93.6875,103 C 83.993524,106.15676 79.852471,107.70502 70.1875,108.4375 C 70.168217,108.43897 69.554127,108.4581 68.78125,108.46875 C 68.008373,108.4794 66.99775,108.49081 66.03125,108.5 C 64.09825,108.51838 62.25,108.53125 62.25,108.53125 C 62.033782,108.52235 61.825783,108.6148 61.6875,108.78125 L 60.6875,110.0625 C 59.53932,111.54105 57.472173,115.36453 60.375,120.78125 C 62.899947,125.49286 66.655353,129.4665 72.34375,131.125 C 76.257294,132.26603 83.486406,131.72914 91.09375,130.53125 C 98.701094,129.33336 106.59949,127.44019 111.53125,125.65625 C 120.9522,122.24845 138.19768,114.30664 145.71875,109.78125 C 145.94993,109.64215 146.37859,109.34344 147.03125,108.875 C 147.68391,108.40656 148.51953,107.82168 149.375,107.1875 C 151.08594,105.91915 152.83362,104.5901 153.53125,103.90625 C 154.70316,102.75749 156.87756,100.64869 158.34375,99.21875 C 159.82744,97.771738 161.59933,95.856197 162.375,94.9375 C 163.10667,94.0709 164.0265,93.06195 164.40625,92.625 C 165.09692,91.83025 165.89226,90.491167 166.6875,89.125 C 167.48274,87.758833 168.24595,86.357241 168.75,85.5 C 170.05469,83.281163 170.54268,79.936344 170.09375,76.875 C 169.9748,76.063876 169.91384,74.968403 169.5,73.84375 C 169.08616,72.719097 168.27836,71.576451 166.78125,70.71875 C 166.76223,70.707856 166.42019,70.442992 165.8125,70.15625 C 165.20481,69.869508 164.28486,69.4995 162.71875,69.09375 C 160.26411,68.457791 158.59048,68.328367 156.53125,68.03125 C 154.56035,67.746874 152.55874,67.652831 150.96875,67.625 z"
           style="fill:#007b00;stroke:none;stroke-width:2.13000011;stroke-linecap:round;stroke-linejoin:round;stroke-miterlimit:4;stroke-opacity:1" />
      </g>
      <g
         style="fill:#64a74f;fill-opacity:1"
         id="g6528">
        <path
           id="path3606"
           d="M 153.25,28.96875 C 150.49133,28.912755 147.39021,29.105504 143.9375,29.625 C 132.55744,31.337253 127.91244,33.021139 126.59375,33.4375 C 125.77914,33.694705 125.05231,33.978776 124.53125,34.21875 C 124.27072,34.338737 124.06041,34.450838 123.90625,34.53125 C 123.82917,34.571456 123.76625,34.59838 123.71875,34.625 C 123.67125,34.65162 123.64633,34.680919 123.59375,34.71875 C 123.5827,34.728516 123.57227,34.738953 123.5625,34.75 C 123.49036,34.817488 123.42458,34.870257 123.375,34.96875 C 123.32542,35.067243 123.29202,35.221322 123.34375,35.375 C 123.39548,35.528678 123.54041,35.641543 123.65625,35.6875 C 123.77209,35.733457 123.87428,35.75 124,35.75 C 123.92186,35.75 124.03782,35.727884 124.15625,35.75 C 124.27468,35.772116 124.46301,35.803473 124.65625,35.84375 C 125.04274,35.924305 125.55294,36.036819 126.09375,36.15625 C 127.17537,36.395112 128.35153,36.67505 128.96875,36.8125 C 133.51785,37.825544 137.09589,40.984943 137.59375,41.4375 C 138.09508,41.893201 138.82865,42.607698 139.1875,43.03125 C 139.3842,43.263403 139.52115,43.468506 139.75,43.59375 C 139.97885,43.718994 140.24135,43.702883 140.53125,43.65625 C 141.11105,43.562983 142.03948,43.281421 144.15625,42.96875 C 145.53287,42.76541 153.79451,41.35704 165.65625,43.09375 C 168.77121,43.549821 172.53041,44.256228 177.65625,47.40625 C 178.81903,48.120827 181.97491,50.072913 184.21875,53.65625 C 186.83932,57.841245 187.70335,61.358721 187.90625,63.875 C 188.0077,65.13314 187.93664,66.153033 187.84375,66.875 C 187.7973,67.235984 187.76349,67.505483 187.71875,67.71875 C 187.67401,67.932017 187.64348,68.052087 187.625,68.15625 L 187.46875,69 C 187.45253,69.128219 187.50637,69.255278 187.60976,69.332822 C 187.71315,69.410366 187.8502,69.426468 187.96875,69.375 C 187.96875,69.375 188.18311,69.282119 188.4375,69.0625 C 188.69189,68.842881 189.03293,68.490312 189.40625,67.96875 C 190.1529,66.925626 191.00255,65.178876 191.5625,62.375 C 193.05762,54.888355 188.84924,48.398327 186.34375,44.6875 C 183.09857,39.881126 178.20876,35.28126 168.34375,31.90625 C 166.70478,31.345529 161.52658,29.136753 153.25,28.96875 z"
           style="fill:#64a74f;stroke:none;stroke-width:2.13000011;stroke-linecap:round;stroke-linejoin:round;stroke-miterlimit:4;stroke-opacity:1" />
        <path
           id="path3602"
           d="M 118.21875,35.71875 C 113.54073,35.732929 101.05149,36.747617 93.46875,39.375 C 82.335138,43.232746 66.837111,50.033992 57.53125,57.53125 C 50.108946,63.511019 43.600131,71.836737 41.09375,77.8125 C 38.644912,83.65112 37.245957,91.285732 40.34375,96.71875 C 43.929296,103.00723 49.521129,104.67999 51.9375,105.65625 C 53.060698,106.11003 56.125,106.9375 56.125,106.9375 C 56.441677,107.01366 56.768718,106.8594 56.911367,106.5666 C 57.054016,106.27379 56.973909,105.92118 56.71875,105.71875 C 56.71875,105.71875 55.848887,105.05838 54.8125,104.15625 C 53.776113,103.25412 52.575303,102.11357 52.03125,101.3125 C 50.743898,99.417037 48.509095,96.806359 49.53125,92.28125 C 50.4597,88.171032 51.355471,86.842123 53.78125,83.21875 C 55.852015,80.125659 61.422756,75.247034 68.71875,70.34375 C 76.014744,65.440466 85.0753,60.473416 94.28125,57 C 102.56124,53.875944 104.479,52.162407 119.96875,49.625 C 125.27208,48.756252 129.81587,48.622926 133.34375,48.875 C 136.87163,49.127074 139.39329,49.790847 140.5625,50.375 L 141.59375,50.875 C 141.84552,51.001422 142.14873,50.963139 142.36117,50.778106 C 142.57362,50.593073 142.65316,50.297991 142.5625,50.03125 L 142.40625,49.5625 C 142.10671,48.564916 141.27066,47.188822 140.25,45.71875 C 139.22934,44.248678 138.05378,42.796994 137.09375,41.90625 C 136.30242,41.172049 134.16182,39.13274 129.84375,37.5625 C 126.27011,36.262974 122.07671,35.707062 118.21875,35.71875 z"
           style="fill:#64a74f;stroke:none;stroke-width:2.13000011;stroke-linecap:round;stroke-linejoin:round;stroke-miterlimit:4;stroke-opacity:1" />
        <path
           id="path3610"
           d="M 146.5625,55.75 C 146.36259,55.786144 146.11814,55.919407 146,56.09375 C 145.87413,56.279495 145.86455,56.464164 145.84375,56.65625 C 145.80215,57.040422 145.81393,57.502782 145.875,58.15625 C 146.03836,59.904187 145.56333,61.889556 145.03125,63.46875 C 144.76521,64.258347 144.4941,64.928251 144.28125,65.4375 C 144.17482,65.692125 144.09781,65.8999 144.03125,66.0625 C 143.99797,66.1438 143.96019,66.21677 143.9375,66.28125 C 143.91481,66.34573 143.875,66.361255 143.875,66.5625 C 143.875,66.769474 143.93614,66.996932 144.03125,67.15625 C 144.09635,67.259976 144.19594,67.337431 144.3125,67.375 C 144.37459,67.394235 144.61924,67.501763 144.9375,67.5 C 144.95831,67.501252 144.97919,67.501252 145,67.5 C 145.01912,67.500479 145.03866,67.500882 145.0625,67.5 C 145.10526,67.498912 145.10137,67.50291 145.125,67.5 C 145.17394,67.493971 145.23436,67.474713 145.25,67.46875 C 145.26085,67.45878 145.27128,67.448354 145.28125,67.4375 C 145.30827,67.437702 145.32474,67.440425 145.34375,67.4375 C 147.8356,67.053944 149.97357,66.926915 151.875,67 C 154.84008,67.113963 160.57239,68.105757 162.8125,68.6875 C 162.84527,68.69601 163.20359,68.827463 163.625,68.96875 C 164.04641,69.110037 164.57963,69.274425 165.09375,69.4375 C 165.60787,69.600575 166.10586,69.749684 166.5,69.84375 C 166.69707,69.890783 166.83735,69.925208 167,69.9375 C 167.08132,69.943646 167.18034,69.939592 167.3125,69.90625 C 167.37858,69.889579 167.46283,69.871823 167.5625,69.78125 C 167.66217,69.690677 167.75,69.51704 167.75,69.375 C 167.75,69.005252 167.62106,68.924168 167.5,68.75 C 167.37894,68.575832 167.2217,68.375096 167.03125,68.15625 C 166.65035,67.718558 166.12535,67.182975 165.5625,66.625 C 164.43681,65.50905 163.10138,64.314018 162.25,63.625 C 160.69576,62.367152 156.93851,59.952766 155,58.96875 C 153.66908,58.293147 151.83301,57.466028 150.21875,56.8125 C 149.41162,56.485736 148.64202,56.195033 148.03125,56 C 147.72587,55.902484 147.45323,55.831051 147.21875,55.78125 C 146.99541,55.733815 146.82352,55.716097 146.59375,55.75 C 146.58582,55.751134 146.57051,55.748551 146.5625,55.75 z"
           style="fill:#64a74f;stroke:none;stroke-width:2.13000011;stroke-linecap:round;stroke-linejoin:round;stroke-miterlimit:4;stroke-opacity:1" />
        <path
           id="path3614"
           d="M 55.625,107.5625 C 55.481798,107.60839 55.374357,107.72777 55.34375,107.875 C 54.244673,113.43435 54.670535,117.18809 56.15625,120.28125 C 56.875195,121.77814 58.292911,124.41185 60.5,126.03125 C 60.804319,126.25454 61.596548,126.75967 62.28125,127.125 C 62.623601,127.30767 62.897615,127.44116 63.1875,127.5 C 63.259971,127.51471 63.329622,127.51621 63.4375,127.5 C 63.545378,127.48379 63.729215,127.40964 63.8125,127.25 C 63.895785,127.09036 63.871628,126.96863 63.84375,126.875 C 63.815872,126.78137 63.76543,126.69998 63.71875,126.625 C 63.392679,126.10124 62.940391,125.40677 62.3125,124.71875 C 61.121292,123.41347 59.322044,120.00063 58.71875,118.0625 C 58.071008,115.98157 58.392037,112.36907 59.65625,110.53125 C 59.869002,110.22196 60.050891,109.91481 60.1875,109.65625 C 60.255804,109.52697 60.30275,109.39188 60.34375,109.28125 C 60.36425,109.22594 60.394004,109.18927 60.40625,109.125 C 60.418496,109.06073 60.452618,108.98295 60.40625,108.84375 C 60.346401,108.66419 60.249909,108.6062 60.1875,108.5625 C 60.125091,108.5188 60.064077,108.49829 60,108.46875 C 59.871845,108.40967 59.708041,108.36874 59.53125,108.3125 C 59.177668,108.20003 58.728705,108.07779 58.25,107.96875 C 57.29259,107.75068 56.297308,107.56537 55.75,107.5625 C 55.70857,107.55622 55.66643,107.55622 55.625,107.5625 L 55.625,107.5625 z"
           style="fill:#64a74f;stroke:none;stroke-width:2.13000011;stroke-linecap:round;stroke-linejoin:round;stroke-miterlimit:4;stroke-opacity:1" />
      </g>
      <path
         id="path3618"
         d="M 147.34375,109.34375 C 147.20785,109.3945 147.09014,109.47332 146.9375,109.5625 C 146.63222,109.74085 146.2475,110.0104 145.75,110.375 C 144.40648,111.35961 138.92737,114.37814 136.5625,115.53125 C 134.45719,116.55779 133.03037,117.23217 132.59375,117.40625 C 132.58292,117.41624 132.57249,117.42667 132.5625,117.4375 C 132.14468,117.66207 131.74898,117.8592 131.5,118.03125 C 131.48959,118.03095 131.47916,118.03095 131.46875,118.03125 C 131.42659,118.0536 131.3315,118.13727 131.25,118.21875 C 130.81748,118.6513 130.62499,119.26178 130.625,120.125 C 130.625,120.7231 130.46254,121.49173 130.125,122.28125 C 128.90218,125.14155 127.64454,127.70064 127.0625,128.5 C 126.53089,129.23011 123.91831,133.53455 123.59375,134.125 C 123.10999,135.00514 121.99544,136.87646 120.9375,138.625 C 119.87956,140.37354 118.82569,142.05874 118.59375,142.375 C 118.50591,142.49477 118.32162,142.73521 118.0625,143.125 C 117.80338,143.51479 117.47104,144.01071 117.125,144.53125 C 116.43291,145.57233 115.69484,146.71786 115.375,147.15625 C 114.69393,148.08977 112.82721,150.60421 112.5,151.09375 C 112.39775,151.24671 111.46178,152.61872 110.5,154.03125 C 110.01911,154.73752 109.52731,155.46391 109.125,156.09375 C 108.72269,156.72359 108.41009,157.22548 108.25,157.59375 C 108.17829,157.75871 108.01368,158.02236 107.96875,158.5 C 107.92382,158.97764 107.96839,159.67097 108.125,161.0625 C 108.29158,162.54256 108.33104,163.41247 108.28125,163.75 C 108.25635,163.91877 108.21284,163.90465 108.25,163.875 C 108.28716,163.84535 108.29692,163.84375 108.15625,163.84375 C 108.14577,163.83147 108.09173,163.78954 108.03125,163.625 C 107.89686,163.25936 107.72179,162.46673 107.53125,161.1875 C 107.04407,157.91655 107.10383,154.21723 107.6875,150.65625 C 107.99211,148.79796 109.38545,144.72503 110.09375,143.03125 C 112.18041,138.04141 114.4723,134.67571 115.6875,132.71875 C 116.79171,130.9405 120.47326,125.80777 121.09375,124.96875 C 121.70076,124.14794 122.10177,123.55224 122.28125,123.0625 C 122.32612,122.94007 122.3346,122.83154 122.34375,122.6875 C 122.3529,122.54346 122.34515,122.33788 122.1875,122.15625 C 122.02985,121.97462 121.78408,121.9309 121.625,121.9375 C 121.46592,121.9441 121.34168,121.98064 121.21875,122.03125 C 121.13265,122.0667 121.04956,122.1124 120.8125,122.21875 C 120.57544,122.3251 120.23833,122.48025 119.84375,122.65625 C 119.0546,123.00826 118.00579,123.46202 116.90625,123.9375 C 115.80671,124.41298 114.66665,124.89092 113.6875,125.28125 C 112.70835,125.67158 111.86246,125.97844 111.5,126.0625 C 111.11811,126.15107 110.73691,126.24674 110.40625,126.34375 C 110.24092,126.39226 110.07744,126.43524 109.9375,126.5 C 109.79756,126.56476 109.5918,126.58297 109.46875,126.96875 C 109.34814,127.34679 109.37478,127.69817 109.40625,128.125 C 109.43772,128.55183 109.50168,129.03281 109.53125,129.5625 C 109.59038,130.62188 109.56109,131.84289 109.0625,133.09375 C 108.54247,134.39838 106.66754,138.54629 105.46875,140.9375 C 103.45688,144.95054 101.27646,148.00784 99.875,149.84375 C 99.678188,150.10158 99.5465,150.15266 99.3125,150.125 C 99.0785,150.09734 98.709683,149.91712 98.3125,149.5625 C 97.518134,148.85326 96.618225,147.48897 95.96875,145.78125 C 95.913244,145.6353 95.650573,144.70189 95.40625,143.875 C 95.284089,143.46155 95.153528,143.06052 95.0625,142.75 C 94.971472,142.43948 94.941343,142.26199 94.90625,142.15625 C 94.130898,139.82011 93.788313,138.06003 93.5625,134.875 C 93.464461,133.49249 93.361144,132.58414 93.25,131.96875 C 93.194428,131.66106 93.143311,131.40629 93.03125,131.1875 C 92.919189,130.96871 92.674695,130.75185 92.375,130.71875 C 92.221177,130.70177 92.242245,130.71544 92.21875,130.71875 C 92.195255,130.72206 92.177276,130.7149 92.15625,130.71875 C 92.114199,130.72645 92.058045,130.73803 92,130.75 C 91.883909,130.77395 91.736366,130.80775 91.5625,130.84375 C 91.214768,130.91576 90.765534,131.0101 90.40625,131.0625 C 89.633464,131.1752 88.152009,131.41495 87.09375,131.59375 C 86.076186,131.76568 84.640045,131.87107 84,131.875 C 83.627847,131.87729 83.24598,131.90059 82.9375,131.9375 C 82.78326,131.95596 82.656525,132.0035 82.53125,132.03125 C 82.405975,132.059 82.322225,132.05107 82.15625,132.15625 C 82.110965,132.18495 82.012383,132.22056 81.90625,132.34375 C 81.800117,132.46694 81.710447,132.70564 81.71875,132.875 C 81.732815,133.16276 81.804081,133.20443 81.875,133.34375 C 81.945919,133.48307 82.041881,133.65377 82.15625,133.84375 C 82.384988,134.22371 82.721429,134.71505 83.09375,135.28125 C 83.838393,136.41364 84.787796,137.84341 85.71875,139.25 C 87.560232,142.03233 88.655835,144.54222 89.65625,146.46875 C 90.64267,148.36833 91.222086,149.39998 91.90625,151.21875 C 93.81663,156.2974 94.429633,159.94727 95.09375,165.3125 C 95.218979,166.32416 95.455391,167.92149 95.625,168.875 C 96.450804,173.51673 96.594645,175.40851 96.65625,181.40625 C 96.690738,184.76185 96.633697,189.16467 96.53125,191.125 C 96.426668,193.12637 96.270737,197.09932 96.21875,199.96875 C 96.096377,206.719 95.995203,208.4011 94.8125,215.78125 C 94.724816,216.32839 94.527027,217.65058 94.34375,218.9375 C 94.160473,220.22442 93.972665,221.52405 93.90625,221.8125 C 93.415278,223.94491 93.001383,225.78042 92.53125,228 C 92.04899,230.277 91.566204,232.12018 91.125,233.5 C 91.020336,233.82732 90.588316,235.32922 90.15625,236.875 C 89.940217,237.64789 89.72605,238.4253 89.5625,239.03125 C 89.480725,239.33423 89.42676,239.57876 89.375,239.78125 C 89.32324,239.98374 89.301044,240.08994 89.28125,240.21875 C 89.229344,240.55651 89.382276,240.85585 89.5625,241.0625 C 89.742724,241.26915 89.962486,241.43346 90.21875,241.5625 C 90.731278,241.82057 91.383088,241.98992 92.0625,241.96875 C 92.787125,241.94618 95.498762,241.72629 98.59375,241.53125 C 101.68874,241.33621 105.11749,241.16709 107.0625,241.15625 C 108.06042,241.15068 108.9787,241.12731 109.65625,241.09375 C 109.99503,241.07697 110.27745,241.06343 110.5,241.03125 C 110.61128,241.01516 110.70604,241.00333 110.8125,240.96875 C 110.86573,240.95146 110.92219,240.92485 111,240.875 C 111.07781,240.82515 111.19695,240.71555 111.25,240.5 C 111.29716,240.30832 111.26783,240.24713 111.25,240.15625 C 111.23217,240.06537 111.21865,239.97278 111.1875,239.875 C 111.12521,239.67944 111.01786,239.4379 110.90625,239.15625 C 110.68303,238.59296 110.39046,237.85513 110.03125,236.96875 C 109.31283,235.196 108.406,232.84585 107.75,230.40625 C 107.63693,229.98575 107.33843,228.63733 107.0625,227.34375 C 106.92453,226.69696 106.78606,226.06305 106.6875,225.5625 C 106.58894,225.06195 106.53208,224.6365 106.53125,224.625 C 106.50492,224.26158 106.37152,223.51512 106.21875,222.53125 C 106.06598,221.54738 105.88665,220.35302 105.6875,219.125 C 105.2892,216.66896 104.85679,214.10484 104.78125,213.34375 C 104.65967,212.11874 104.47533,210.97254 104.5625,203.84375 C 104.65559,196.23144 104.81195,192.92444 105.3125,189.40625 C 105.36313,189.05035 105.7132,186.92559 106.03125,184.84375 C 106.19028,183.80283 106.34931,182.7765 106.46875,181.96875 C 106.58819,181.161 106.67066,180.65525 106.6875,180.40625 C 106.70492,180.14867 106.81137,179.52316 107,178.78125 C 107.18863,178.03934 107.42782,177.15963 107.6875,176.28125 C 108.20687,174.52448 108.79178,172.76667 109,172.125 C 109.74463,169.83041 111.21753,166.52735 112.5,163.78125 C 113.14124,162.4082 113.72215,161.17411 114.15625,160.28125 C 114.3733,159.83482 114.56395,159.47352 114.6875,159.21875 C 114.74927,159.09137 114.778,158.97961 114.8125,158.90625 C 114.82975,158.86957 114.863,158.83983 114.875,158.8125 C 114.881,158.79883 114.86753,158.80058 114.875,158.78125 C 114.87873,158.77158 114.8997,158.7398 114.90625,158.71875 C 114.90952,158.70822 114.90134,158.70946 114.90625,158.6875 C 114.91001,158.67071 114.93495,158.62201 114.9375,158.59375 C 114.96867,158.52004 115.02427,158.42345 115.09375,158.28125 C 115.23271,157.99685 115.43375,157.60266 115.6875,157.125 C 116.19499,156.16969 116.89594,154.88717 117.65625,153.53125 C 119.17686,150.81941 120.95328,147.74942 121.90625,146.25 C 122.36636,145.52604 122.9699,144.4925 123.28125,143.90625 C 123.3949,143.69225 123.87484,142.92092 124.5,141.96875 C 125.12516,141.01658 125.91076,139.84497 126.6875,138.6875 C 127.46424,137.53003 128.21088,136.3939 128.8125,135.5 C 129.41412,134.6061 129.8399,133.98983 129.96875,133.78125 C 130.60315,132.7543 133.40233,128.90413 134.5,127.5625 C 135.32298,126.55661 136.66233,124.80975 137.8125,123.28125 C 138.38758,122.517 138.8949,121.7973 139.28125,121.28125 C 139.47443,121.02323 139.63885,120.80355 139.75,120.65625 C 139.80557,120.5826 139.84555,120.53826 139.875,120.5 C 139.88972,120.48087 139.90078,120.47561 139.90625,120.46875 C 139.9726,120.40601 139.99545,120.35927 140.0625,120.28125 C 140.14166,120.18914 140.25776,120.07998 140.375,119.9375 C 140.60948,119.65253 140.90843,119.27154 141.25,118.84375 C 141.93315,117.98817 142.75799,116.94164 143.4375,116.0625 C 144.11681,115.18363 145.00583,114.14574 145.34375,113.78125 C 146.39911,112.64292 147.1439,111.77564 147.625,111.15625 C 147.86555,110.84656 148.04045,110.59339 148.15625,110.375 C 148.21415,110.2658 148.25723,110.16377 148.28125,110 C 148.29326,109.91811 148.30065,109.8246 148.25,109.6875 C 148.19935,109.5504 148.07235,109.40384 147.9375,109.34375 C 147.6258,109.20489 147.47965,109.293 147.34375,109.34375 z"
         style="fill:#815533;fill-opacity:1;stroke:none;stroke-width:2.13000011;stroke-linecap:round;stroke-linejoin:round;stroke-miterlimit:4;stroke-opacity:1" />
      <path
         id="path3620"
         d="M 130.25,241.1875 C 128.65245,241.14411 124.86218,241.35655 121.71875,241.375 C 116.62682,241.40488 111.42475,241.46549 107.375,241.53125 C 105.35012,241.56413 103.59699,241.62385 102.3125,241.65625 C 101.02801,241.68865 100.25931,241.6813 99.9375,241.71875 C 99.556005,241.76315 97.951601,241.90517 96.03125,242.03125 C 94.110899,242.15733 91.841606,242.27442 90.03125,242.375 C 87.585475,242.51085 80.611075,243.72865 77.0625,244.5625 C 75.675164,244.88851 70.436882,245.8836 68.6875,246.15625 C 67.939043,246.27289 65.256666,246.82009 62.65625,247.375 C 61.356042,247.65245 60.079256,247.91984 59.125,248.125 C 58.647872,248.22758 58.255725,248.31363 57.96875,248.375 C 57.681775,248.43637 57.450215,248.50858 57.5,248.5 C 56.551652,248.66342 55.725965,248.85074 55.15625,249.25 C 54.871393,249.44963 54.612598,249.77414 54.625,250.1875 C 54.637402,250.60086 54.910065,250.91484 55.25,251.1875 C 55.863023,251.67919 56.76142,251.79916 57.9375,251.90625 C 59.11358,252.01334 60.540485,252.02144 61.96875,252 C 64.82528,251.95712 67.742334,251.77357 68.78125,251.75 C 74.918979,251.61082 77.883447,251.46012 80.34375,251.125 C 81.555636,250.95993 83.801136,250.71812 85.3125,250.59375 C 86.084503,250.53023 89.275769,250.22005 92.375,249.9375 C 95.474231,249.65495 98.435551,249.40899 98.96875,249.34375 C 99.139305,249.32288 100.14039,249.22285 101.5,249.125 C 102.85961,249.02715 104.61182,248.90278 106.40625,248.78125 C 109.99511,248.53819 113.7773,248.31324 114.9375,248.25 C 117.28457,248.12206 126.38724,247.60388 130.75,247.625 C 135.14604,247.64632 144.35534,247.84104 146.59375,248.0625 C 151.53827,248.55171 158.3494,248.67176 163.8125,248.53125 C 166.54405,248.461 168.95774,248.32652 170.625,248.125 C 171.45863,248.02424 172.09976,247.89933 172.5625,247.75 C 172.79387,247.67533 172.96524,247.6235 173.15625,247.4375 C 173.25176,247.3445 173.36173,247.19874 173.375,247 C 173.38827,246.80126 173.3105,246.60727 173.21875,246.5 C 173.01173,246.25796 172.8218,246.24059 172.59375,246.15625 C 172.3657,246.07191 172.09289,245.9853 171.78125,245.90625 C 171.15797,245.74816 170.37479,245.58058 169.59375,245.4375 C 168.03167,245.15133 166.42295,244.92968 166.125,244.875 C 164.78125,244.62843 162.43166,244.32209 160.28125,244.0625 C 159.20604,243.9327 158.17877,243.81892 157.375,243.71875 C 156.57123,243.61858 155.95737,243.53205 155.8125,243.5 C 154.88303,243.29437 152.5774,243.08026 150.25,242.875 C 147.9226,242.66974 145.58708,242.46217 144.90625,242.375 C 137.84329,241.4707 132.59582,241.25123 130.25,241.1875 z"
         style="fill:#af708a;fill-opacity:1;stroke:none;stroke-width:2.13000011;stroke-linecap:round;stroke-linejoin:round;stroke-miterlimit:4;stroke-opacity:1" />
      <path
         id="path3622"
         d="M 175.28125,246.8125 C 175.22498,246.8144 175.15265,246.83268 175.09375,246.875 C 175.03485,246.91732 175.00564,247.00769 175,247.0625 C 174.98873,247.17212 175.01349,247.21057 175.03125,247.28125 C 175.06677,247.4226 175.11377,247.54941 175,247.71875 C 174.88623,247.88809 174.56577,248.13178 173.875,248.34375 C 173.18423,248.55572 172.13793,248.73645 170.5,248.875 C 163.96132,249.4281 156.68231,249.4005 151.03125,249.09375 C 145.06298,248.76547 143.73,248.40033 140.90625,248.28125 C 138.96342,248.19933 134.61396,248.15678 130.5,248.15625 C 128.44302,248.15598 126.43425,248.16689 124.84375,248.1875 C 123.25325,248.20811 122.06197,248.2375 121.59375,248.28125 C 121.23762,248.31454 118.6136,248.49795 116,248.65625 C 113.3864,248.81455 110.78388,248.95037 110.4375,248.96875 C 110.07535,248.98798 106.82395,249.22223 103.53125,249.4375 C 101.8849,249.54513 100.20912,249.62832 98.90625,249.71875 C 97.603382,249.80918 96.666488,249.87481 96.40625,249.90625 C 95.450813,250.02171 89.326113,250.77508 88.25,250.9375 C 87.223323,251.09245 81.751866,251.62733 78.59375,251.875 C 75.010419,252.15601 68.25726,252.33109 66.65625,252.4375 C 58.431505,252.98417 55.055565,252.27025 53.71875,251.5 C 53.050342,251.11487 52.872574,250.74429 52.8125,250.46875 C 52.782463,250.33098 52.794437,250.22869 52.78125,250.125 C 52.774657,250.07315 52.766084,250.00946 52.6875,249.9375 C 52.648208,249.90152 52.609552,249.87506 52.5625,249.875 C 52.540358,249.87497 52.517696,249.87091 52.5,249.875 C 52.480092,249.8796 52.454271,249.89933 52.4375,249.90625 C 52.280846,249.92707 52.053872,249.98873 51.6875,250.09375 C 51.288672,250.20807 50.760818,250.37325 50.15625,250.5625 C 48.947114,250.941 47.411762,251.43145 45.875,251.9375 C 42.801477,252.94961 39.735589,253.98691 39.34375,254.125 C 38.93734,254.26823 37.857896,254.74623 36.75,255.25 C 35.642104,255.75377 34.538081,256.27116 34.125,256.46875 C 33.262399,256.88136 32.344234,257.2518 31.65625,257.65625 C 31.312258,257.85847 31.015716,258.06996 30.8125,258.3125 C 30.609284,258.55504 30.513945,258.84717 30.5625,259.15625 C 30.652856,259.73144 30.936474,260.23092 31.40625,260.625 C 31.876026,261.01908 32.499044,261.32262 33.28125,261.5625 C 34.845662,262.04225 37.010622,262.25394 39.625,262.3125 C 44.853756,262.42962 51.909611,261.91021 59.625,261.46875 C 70.895053,260.82392 71.469419,260.63809 73.46875,260.53125 C 74.427419,260.48002 76.331168,260.35699 78.3125,260.34375 C 80.293832,260.33051 82.379065,260.40484 83.625,260.71875 C 84.362388,260.90454 85.145013,261.43876 85.5625,262.0625 C 85.771244,262.37437 85.88553,262.70187 85.875,263.03125 C 85.86447,263.36063 85.731019,263.69658 85.40625,264.03125 C 84.86103,264.59342 84.489623,265.04652 82.84375,265.875 C 82.308361,266.14449 80.747456,266.66395 79.1875,267.125 C 77.627544,267.58605 76.035065,268.01493 75.375,268.15625 C 74.70896,268.29885 72.891623,268.61985 71.09375,269 C 70.194813,269.19007 69.281497,269.402 68.53125,269.59375 C 67.781003,269.7855 67.213557,269.9562 66.875,270.125 C 66.445726,270.33903 65.997772,270.55873 65.6875,270.875 C 65.377228,271.19127 65.183655,271.63208 65.25,272.15625 C 65.370126,273.10531 65.841309,273.84496 66.53125,274.375 C 67.221191,274.90504 68.134572,275.20743 69.1875,275.375 C 70.477942,275.58098 72.272688,275.53503 73.9375,275.40625 C 75.602312,275.27747 77.127045,275.09298 77.875,275.03125 C 79.391038,274.90611 81.780536,274.71294 83.1875,274.59375 C 85.580495,274.39105 90.378459,274.22098 91.28125,274.25 C 93.897734,274.33412 96.727993,274.43669 98.8125,274.8125 C 99.854753,275.00041 100.7137,275.25784 101.25,275.59375 C 101.51815,275.76171 101.67874,275.92833 101.78125,276.125 C 101.88376,276.32167 101.93897,276.55245 101.875,276.8125 C 101.82328,277.02277 101.49459,277.36361 101,277.71875 C 100.50541,278.07389 99.861508,278.44458 99.21875,278.78125 C 98.575992,279.11792 97.933469,279.42497 97.4375,279.65625 C 97.189516,279.77189 96.970265,279.86326 96.8125,279.9375 C 96.733618,279.97462 96.676026,280.00562 96.625,280.03125 C 96.573974,280.05688 96.54129,280.09415 96.5,280.125 C 96.195569,280.35242 96.026077,280.59162 96.0625,280.84375 C 96.098923,281.09588 96.30055,281.27372 96.53125,281.40625 C 96.992649,281.67132 97.651789,281.81227 98.125,281.78125 C 99.441866,281.69492 100.30205,281.68579 105.46875,280.84375 C 107.07403,280.58214 108.61781,280.56483 113.21875,280.65625 C 116.36761,280.71884 121.28135,281.23193 123.625,281.5 C 126.01045,281.77285 131.78811,282.68873 134.09375,282.875 C 135.06304,282.95332 135.9311,282.94635 136.625,282.90625 C 136.97195,282.8862 137.2946,282.86073 137.53125,282.8125 C 137.7679,282.76427 137.93407,282.71245 138.0625,282.59375 C 138.15246,282.5106 138.17032,282.39543 138.15625,282.28125 C 138.14218,282.16707 138.10194,282.04383 138.03125,281.9375 C 137.88987,281.72485 137.67566,281.48935 137.375,281.25 C 136.77367,280.7713 135.87884,280.26906 134.9375,279.875 C 133.66325,279.3416 131.9445,278.56239 130.875,277.59375 C 130.34025,277.10943 129.95962,276.59794 129.875,276.03125 C 129.79038,275.46456 129.97188,274.84701 130.59375,274.125 C 130.7893,273.89796 131.32725,273.54541 132.15625,273.21875 C 132.98525,272.89209 134.11706,272.55256 135.53125,272.3125 C 139.55701,271.62913 152.48772,271.15428 153.28125,271.125 C 153.35786,271.12199 153.78998,271.0828 154.4375,271.03125 C 155.08502,270.9797 155.9308,270.91712 156.8125,270.8125 C 157.6942,270.70788 158.60807,270.56895 159.375,270.40625 C 160.14193,270.24355 160.75218,270.04654 161.09375,269.78125 C 161.28867,269.62987 161.43328,269.45227 161.46875,269.21875 C 161.50422,268.98523 161.42703,268.72732 161.25,268.5 C 160.89594,268.04536 160.15636,267.66364 158.84375,267.4375 C 158.79743,267.42952 158.37569,267.33179 157.78125,267.1875 C 157.18681,267.04321 156.40846,266.83807 155.5625,266.5625 C 153.87059,266.01135 151.9554,265.18192 150.96875,264.15625 C 150.57547,263.74742 150.19069,263.15836 150.0625,262.53125 C 149.93431,261.90414 150.04318,261.25057 150.6875,260.59375 C 151.93483,259.32125 154.67593,258.45073 158.03125,258.28125 C 158.33824,258.26574 159.1231,258.16221 160.15625,258.03125 C 161.1894,257.90029 162.47747,257.73643 163.75,257.5625 C 166.29505,257.21463 168.79614,256.83279 169.28125,256.75 C 170.89092,256.47526 182.63016,255.08376 184.5625,254.96875 C 185.54146,254.9105 188.01178,254.81133 190.21875,254.46875 C 191.32223,254.29746 192.35639,254.06303 193.125,253.71875 C 193.5093,253.54661 193.83758,253.36955 194.0625,253.125 C 194.28742,252.88045 194.43478,252.57871 194.40625,252.25 C 194.36271,251.75852 193.97107,251.31239 193.40625,250.90625 C 192.84143,250.50011 192.08062,250.1259 191.15625,249.78125 C 189.30751,249.09195 186.86849,248.51218 184.375,248.21875 C 183.6987,248.13917 181.54912,247.80247 179.53125,247.46875 C 178.52232,247.30189 177.55188,247.14961 176.78125,247.03125 C 176.39593,246.97207 176.06826,246.90824 175.8125,246.875 C 175.55674,246.84176 175.39219,246.80877 175.28125,246.8125 z"
         style="fill:#cc8d9f;fill-opacity:1;stroke:none;stroke-width:2.13000011;stroke-linecap:round;stroke-linejoin:round;stroke-miterlimit:4;stroke-opacity:1" />
      <path
         sodipodi:nodetypes="csssssssssscssssssssssssssssssssssssssscssssssscssssssssssssssssssssssssssssssssssssssssssssssssssssscsssccssccsssssssssssscsscccsssscccssssccscsssssssssssssscscsssssssssssssccsssssssssssssccssssssssssssccssssscscsssssssccsssssssssssssssssssssssssssssszsssssssssssssssssssssssssssssssscssccsssssssssssssccssssssssssccssssssssssssssssssscscsssssssssssssssssssssssssssssssssscsssssssszz"
         id="path1378"
         d="M 153.51578,27.975641 C 144.64618,27.875842 136.66751,29.662914 135.08551,29.963943 C 129.3818,31.049291 122.11208,33.133962 120.41736,34.165311 C 119.80122,34.540264 119.26769,34.608079 116.47567,34.671337 C 113.37882,34.741505 104.14034,35.817818 94.390203,38.166928 C 92.569417,38.605611 78.783858,43.745363 73.296823,46.789376 C 68.752328,49.310501 63.552926,51.536601 56.844267,57.189582 C 55.552061,58.278446 48.497298,64.758777 45.964641,68.248961 C 39.552513,77.085335 37.244372,84.311938 38.247725,92.631522 C 38.84656,97.596931 42.950123,102.12769 45.59845,103.81741 C 46.183486,104.19068 48.627775,105.3528 49.267141,105.59517 C 49.267141,105.59517 53.041618,106.93697 54.072835,107.41692 C 53.757678,108.58086 52.529042,114.24524 54.220891,119.27124 C 56.283724,125.39932 62.392783,129.00063 64.674382,129.84456 C 68.251333,131.16761 72.405961,132.54781 72.81743,132.54782 C 73.090493,132.54782 73.666769,132.69812 74.102483,132.88073 C 74.648466,133.10958 75.65434,133.217 77.338379,133.23361 C 80.036801,133.26023 79.653815,133.09462 81.379961,134.99805 C 82.17622,135.87612 85.955125,141.72052 86.386969,142.60179 C 87.399421,144.66683 89.558857,148.03501 90.548379,151.19095 C 91.027965,152.72052 93.035092,157.89071 93.651148,164.40095 C 93.774215,165.69621 94.111664,167.36788 94.283675,168.12958 C 95.515503,173.58438 95.808131,179.94309 95.335677,190.92747 C 95.176924,194.61881 95.03577,199.74834 95.02273,202.32642 C 95.016553,203.55251 95.000696,204.56035 94.962819,205.51573 C 94.849188,208.38185 94.522963,210.7612 93.53128,217.02786 C 93.17898,219.25439 92.752443,221.65137 92.585827,222.35448 C 92.41917,223.05759 91.19262,228.38953 90.674894,230.55746 C 90.157189,232.72539 89.701972,234.84389 89.58294,235.24488 C 89.129859,236.7712 88.1964,239.81383 87.811842,240.35842 C 87.604975,240.65138 86.773772,241.61181 85.621261,241.71671 C 84.7618,241.79493 76.075381,243.5219 75.913533,243.62097 C 75.822214,243.67686 68.919271,245.04323 67.970216,245.15237 C 67.791007,245.17298 58.617475,246.884 57.889327,247.0644 C 55.330666,247.69833 50.239786,248.89217 48.368286,249.50687 C 47.406952,249.82262 40.085406,252.3393 39.206515,252.6296 C 38.327625,252.91988 33.233227,255.19521 30.670622,256.77104 C 29.71981,257.35572 28.369987,259.5683 29.884946,260.93912 C 32.583293,263.38074 32.883786,263.47549 42.935143,263.46926 C 43.871474,263.46867 45.68968,263.43281 45.971308,263.4293 C 52.302116,263.38907 56.454574,263.26616 61.471751,262.86335 C 62.29205,262.79747 71.993674,262.19299 73.236892,262.07102 C 73.98889,261.99724 82.488906,261.51033 83.577188,262.39061 C 85.120865,263.63925 82.535089,264.46373 81.226808,264.92741 C 79.907145,265.39512 72.215522,267.32626 71.805373,267.41761 C 71.395224,267.50897 66.224615,268.22492 64.767578,269.68809 C 63.701086,270.75907 63.211086,273.1395 64.934044,274.97473 C 65.988693,276.0981 67.579758,277.23692 70.646836,277.21191 C 71.645662,277.35992 74.54221,277.1691 75.001338,277.05211 C 76.668207,276.62738 86.855138,275.88568 90.981174,275.88692 C 95.104653,275.88813 99.081036,276.28254 99.537056,276.73918 C 99.966586,277.16931 98.487346,277.78445 97.672738,278.07083 C 94.786314,279.08558 93.698318,281.09646 95.082667,282.27219 C 96.043939,283.0886 97.025511,283.39602 99.663556,283.39744 C 101.83331,283.39864 105.42951,282.078 110.5831,282.25222 C 112.51707,282.3176 120.24546,282.70703 122.72777,282.97131 C 125.15206,283.22941 133.27263,284.36918 134.33311,284.45609 C 138.32302,284.78315 140.37969,283.99176 140.05922,282.25889 C 139.80118,280.86351 137.68259,279.42082 134.60611,278.06416 C 133.36147,277.5153 131.5888,276.98845 131.51001,275.74709 C 131.47483,275.19288 132.77414,274.47121 133.86038,274.26897 C 136.38752,273.79837 138.15528,273.60645 141.90357,273.39008 C 144.0715,273.26491 152.65638,272.69104 154.4677,272.61772 C 158.03421,272.47335 161.15848,271.84877 161.97157,271.11293 C 162.93578,270.24035 163.33585,268.69459 162.53087,267.57075 C 161.36207,265.93899 155.72241,265.89841 152.50353,263.51586 C 151.01356,262.41302 151.90495,261.57098 152.71659,261.09892 C 154.39298,260.12392 155.21062,260.10406 158.65437,259.79445 C 162.22024,259.47387 168.15718,258.66051 171.0934,258.04943 C 172.20666,257.81774 181.46963,256.66796 183.3446,256.55798 C 185.21957,256.44799 193.8364,256.0109 195.21628,254.22759 C 196.144,253.02863 195.97268,251.40105 194.60372,250.12609 C 194.05479,249.61487 192.76449,249.01203 191.21467,248.37497 C 189.08903,247.50122 179.5087,246.16671 178.46409,246.00463 C 177.41947,245.84257 166.52849,243.86518 165.76679,243.68755 C 164.50248,243.39276 157.29214,242.5857 156.17889,242.40917 C 153.13978,241.9273 144.19934,241.31522 142.96889,241.13744 C 136.06599,240.14009 131.10355,240.16251 128.16091,240.23857 C 126.58724,240.27925 116.0753,240.43373 113.22644,240.37174 C 112.65152,240.35923 112.53395,240.25253 112.28761,239.50616 C 112.13246,239.0361 110.40944,236.02036 109.30471,232.94112 C 108.73087,231.34163 107.11217,224.57269 106.84115,221.93501 C 106.78152,221.35452 105.92272,216.10637 105.68261,213.93843 C 105.30313,210.51217 105.26233,209.14698 105.36302,203.49828 C 105.47952,196.96089 105.75525,191.82061 106.10874,189.64908 C 106.21366,189.00456 107.42484,180.51645 107.64014,179.63506 C 107.76894,179.10772 109.30737,173.44091 109.9439,171.43208 C 110.62997,169.26692 114.77501,160.54038 115.18395,160.03313 C 115.32567,159.85735 116.3966,157.84389 117.56096,155.55878 C 118.72531,153.27366 120.31042,150.39729 121.08319,149.16684 C 121.85593,147.93639 122.7152,146.54614 122.9941,146.0774 C 126.96724,139.39915 130.50213,134.15216 134.76591,128.61278 C 137.67803,124.82944 139.59555,122.33513 140.51198,121.12889 C 140.85936,120.67168 143.12571,117.87931 143.70795,117.07401 C 144.29019,116.26871 145.13972,115.22567 145.59225,114.75693 C 146.4076,113.91242 148.54707,111.33877 150.62589,108.70457 C 151.21905,107.95296 152.13918,106.35304 155.86006,102.85174 C 157.95838,100.87725 161.81743,97.749623 162.35108,97.272332 C 166.05735,93.957472 169.15208,91.313253 169.89491,90.827132 C 170.37437,90.513362 172.04965,89.164175 172.75796,88.683176 C 173.46628,88.202171 177.88229,84.35264 178.68382,83.64953 C 179.40074,83.020622 181.17307,81.286734 181.38707,81.052806 C 182.88266,79.515105 186.58185,74.997971 189.31705,70.153225 C 192.65806,64.235436 193.64223,60.485183 192.33889,55.113445 C 191.40944,51.282683 188.33219,41.393326 176.95267,34.558148 C 175.67857,33.792855 166.2774,28.558727 153.51578,27.975641 z M 168.06511,32.134537 C 177.87063,35.48919 182.65675,40.009042 185.86807,44.765269 C 188.36901,48.469363 192.50318,54.87765 191.04155,62.196599 C 189.93848,67.720111 187.65916,68.948079 187.65916,68.948079 L 187.81228,68.095821 C 187.89545,67.627079 189.66967,61.824575 184.36998,53.361085 C 182.07676,49.698868 178.85608,47.698008 177.69173,46.982468 C 172.51878,43.803488 168.67959,43.085634 165.55372,42.627966 C 153.6404,40.883705 145.27241,42.302827 143.92768,42.501458 C 139.66414,43.131229 140.10157,43.63133 139.31349,42.701203 C 138.93387,42.253122 138.19791,41.50538 137.68223,41.03664 C 137.16655,40.567893 133.56944,37.400901 128.90664,36.362538 C 127.67538,36.088346 124.06833,35.269395 123.83852,35.269395 C 123.451,35.269395 123.4439,35.078405 123.64544,34.889871 C 123.72257,34.834382 124.92173,34.16715 126.51443,33.664275 C 127.86751,33.237056 132.47733,31.575211 143.83731,29.86598 C 157.56734,27.80015 165.81105,31.363379 168.06511,32.134537 z M 118.23345,36.442435 C 122.02122,36.430959 126.13563,36.998253 129.60577,38.260145 C 133.81628,39.79127 135.84992,41.705683 136.65019,42.448187 C 138.41696,44.087444 141.31834,48.253446 141.79037,49.825548 L 141.9302,50.298281 L 140.90483,49.785596 C 138.24402,48.456218 130.5868,47.237151 119.87665,48.991601 C 104.34623,51.535668 102.30538,53.283604 94.07061,56.390596 C 75.531978,63.385243 57.640076,76.324609 53.248806,82.883829 C 50.823776,86.506085 49.805036,87.992863 48.860999,92.172102 C 47.775608,96.977112 50.26407,99.90965 51.504747,101.7364 C 52.758954,103.58307 56.339114,106.31673 56.339114,106.31673 C 56.339114,106.31673 53.181305,105.43479 52.203444,105.03972 C 49.700052,104.02831 44.430939,102.475 40.970965,96.406762 C 38.061012,91.303171 39.336638,83.865342 41.736654,78.143143 C 44.16425,72.355186 50.679779,64.02022 58.009451,58.115083 C 67.180541,50.726411 82.641896,43.925733 93.724654,40.085611 C 101.13334,37.518534 113.65715,36.456305 118.23345,36.442435 z M 153.83518,43.580092 C 161.06592,43.743559 166.65323,44.342631 169.92154,45.344538 C 175.05699,46.918823 179.10023,50.05668 179.33633,50.238357 C 180.90873,51.491709 185.42032,56.311171 186.30752,61.81042 C 187.50658,69.242725 185.37769,73.074228 183.99711,75.246796 C 182.35778,77.826549 178.57253,81.712713 175.51449,84.302035 C 175.36896,84.425244 172.53555,86.872126 172.1454,87.165087 C 171.75526,87.458055 168.47015,90.118695 167.75095,90.733916 C 167.03175,91.349143 166.38725,91.852509 166.31941,91.852509 C 166.03793,91.852509 166.23031,91.256587 166.77218,90.460928 C 167.25932,89.745634 173.42761,81.706876 169.95482,71.504852 C 166.25684,60.641274 145.99701,54.108942 145.8253,54.02025 C 145.80972,54.013944 145.80035,54.000291 145.78533,53.993618 C 145.26474,53.692677 144.85438,52.793816 143.92101,50.291628 C 143.45336,49.03782 142.08776,46.41875 141.66387,45.963751 C 140.92498,45.170656 141.07807,44.881262 144.08804,44.214287 C 146.49822,43.680222 152.74737,43.555501 153.83518,43.580092 z M 133.68727,49.645775 C 135.60359,49.785127 138.84583,50.103484 142.15493,52.457494 C 144.07555,53.823775 144.34043,55.573434 144.52028,57.435938 C 144.5288,57.773565 144.63619,59.322196 144.46701,60.425498 C 144.11493,62.721608 142.58205,66.320974 141.85503,67.780668 C 141.12801,69.240364 139.94283,70.879911 139.4267,71.66465 C 137.91846,73.957829 128.47259,84.766717 115.74324,92.065573 C 114.10768,93.003383 102.99815,98.530101 94.93618,101.56026 C 79.459544,107.37728 67.461521,107.68265 64.580953,107.47361 C 63.291914,107.38008 60.138893,106.74005 56.810962,104.94265 C 56.367031,104.70288 55.367748,103.95544 54.380298,102.93206 C 51.907042,100.36882 50.240043,97.903715 50.01287,95.155009 C 49.78491,92.396776 51.680142,87.568686 53.614997,84.714851 C 56.923468,79.834985 65.136306,73.990222 65.999366,73.295925 C 66.862426,72.601629 74.444637,67.689001 84.462744,62.709286 C 94.593174,57.673738 104.01144,53.909748 111.54188,52.222519 C 121.54921,49.980334 126.22224,49.731101 133.68727,49.645775 z M 146.49777,56.124261 C 147.27035,55.988807 151.95595,57.987745 154.58091,59.320232 C 156.45396,60.271025 160.28997,62.721825 161.77183,63.92109 C 163.41986,65.254842 167.04517,68.751237 167.04517,69.267676 C 167.04517,69.58433 163.20688,68.199011 162.78389,68.089163 C 160.47957,67.490744 154.78525,66.48206 151.73117,66.364673 C 149.78689,66.289941 147.60893,66.443471 145.09287,66.830751 C 145.07625,66.833309 145.06291,66.834831 145.04627,66.837409 C 145.00958,66.838818 144.94737,66.843199 144.9131,66.844068 C 144.853,66.85219 144.82871,66.846281 144.77994,66.850726 C 144.77338,66.850787 144.77308,66.85069 144.76662,66.850726 C 144.54152,66.851974 144.42778,66.812779 144.31386,66.777485 C 144.27291,66.708873 144.24728,66.618247 144.24728,66.457888 C 144.24728,66.1807 146.58179,61.743833 146.23144,57.995235 C 146.11058,56.702076 146.13151,56.167586 146.49777,56.124261 z M 156.27875,68.621824 C 158.35803,68.921837 159.95821,69.050421 162.36442,69.67383 C 165.43854,70.470282 165.98717,71.027294 166.28613,71.198572 C 169.01651,72.762826 169.00396,75.148068 169.25572,76.864757 C 169.68264,79.775972 169.17162,83.025995 167.99064,85.034444 C 166.95973,86.787687 164.92279,90.62836 163.70273,92.032281 C 163.32943,92.461797 162.41859,93.526187 161.67861,94.402621 C 160.93862,95.279061 159.13515,97.168735 157.67034,98.59733 C 156.20552,100.02592 154.04488,102.1328 152.86972,103.28474 C 151.69456,104.43669 145.70518,108.79044 145.20607,109.09075 C 137.78137,113.55816 120.46683,121.50164 111.11576,124.88416 C 101.40358,128.3973 79.621753,132.47468 72.384242,130.36452 C 66.901368,128.76594 63.320455,124.9551 60.852517,120.34987 C 58.074251,115.16556 60.033246,111.73947 61.09222,110.3758 L 62.077638,109.11072 C 62.077638,109.11072 69.573321,109.04454 70.100859,109.0042 C 79.825084,108.26723 84.065036,106.71188 93.75101,103.55773 C 98.413691,102.03937 108.1373,97.936336 117.34122,93.011046 C 127.61862,87.511307 137.97296,76.976625 139.92135,74.007806 C 141.40219,71.751395 142.12891,70.469292 142.89566,69.67383 C 143.65553,68.885472 143.957,68.798025 147.80279,68.248961 C 148.33415,68.218353 152.42246,68.065413 156.27875,68.621824 z M 55.600394,107.85595 C 56.471803,107.86052 59.734169,108.57869 59.827168,108.85771 C 59.8685,108.98179 59.564247,109.56731 59.154676,110.16273 C 57.773122,112.17115 57.46921,115.82337 58.165926,118.06165 C 58.796004,120.08583 60.560847,123.46433 61.847323,124.874 C 62.450582,125.53503 62.89305,126.20764 63.211789,126.71962 C 63.766249,127.61024 61.109075,125.97252 60.579129,125.58368 C 58.479281,124.04296 57.068529,121.47025 56.361031,119.99719 C 54.917988,116.9929 54.512077,113.36084 55.600394,107.85595 z M 147.56309,109.72994 C 147.79503,109.83329 146.86589,111.02114 144.76662,113.28546 C 144.40533,113.67517 143.5424,114.72546 142.84904,115.62251 C 141.49446,117.37503 139.53723,119.8031 139.34013,119.97701 C 139.27374,120.03561 135.53081,125.1381 133.91366,127.11467 C 132.78049,128.49969 130.01794,132.29093 129.33277,133.40007 C 128.93459,134.04459 123.23851,142.4167 122.63455,143.55392 C 122.33315,144.12144 121.72313,145.16123 121.27627,145.86434 C 119.33894,148.91259 114.20519,158.0512 114.20519,158.45512 C 114.20519,158.54128 109.83633,167.16283 108.31262,171.8582 C 107.89433,173.14724 106.07054,178.87024 105.97558,180.27425 C 105.93991,180.80159 104.72566,188.46125 104.61729,189.22296 C 104.11261,192.77025 103.93811,196.11881 103.84494,203.73797 C 103.75762,210.87873 103.97262,212.11011 104.0913,213.30589 C 104.25604,214.96579 105.72273,223.35961 105.80911,224.55171 C 105.84576,225.05719 106.80521,229.52493 107.05421,230.45093 C 108.38556,235.40209 110.6615,239.82499 110.55647,240.25189 C 110.51593,240.41665 108.89069,240.47382 106.90107,240.48493 C 102.94676,240.50696 93.199972,241.25592 91.873383,241.29724 C 90.714281,241.33335 89.580022,240.72394 89.661733,240.19224 C 89.728587,239.75721 91.331903,234.0677 91.500519,233.54036 C 91.950001,232.13464 92.413864,230.29011 92.898753,228.00069 C 93.368051,225.785 93.773064,223.95282 94.263709,221.82181 C 94.43908,221.06011 95.000206,216.80415 95.169231,215.74948 C 96.353081,208.3621 96.511581,206.60517 96.634048,199.84955 C 96.68585,196.99098 96.816243,193.02616 96.920343,191.03401 C 97.02445,189.04185 97.081442,184.6595 97.046844,181.29297 C 96.985138,175.28596 96.816351,173.31721 95.988189,168.66224 C 95.821423,167.72475 95.585495,166.14275 95.462198,165.14668 C 94.796734,159.77044 94.160333,156.03521 92.232928,150.91131 C 91.538502,149.06522 90.981113,148.0149 89.99575,146.11736 C 89.010393,144.21982 87.904389,141.65908 86.034098,138.83322 C 84.1678,136.01339 82.136207,133.08552 82.119037,132.73424 C 82.113302,132.61716 82.185941,132.58005 82.278837,132.52118 C 82.43612,132.4215 83.1404,132.33908 83.843517,132.33475 C 84.546627,132.33043 85.984813,132.18003 87.039482,132.00183 C 88.09415,131.82364 89.580274,131.58692 90.341982,131.47584 C 91.103689,131.36474 92.101039,131.14384 92.153032,131.14958 C 92.516944,131.18977 92.65671,132.02881 92.852155,134.78499 C 93.079818,137.99593 93.423914,139.8724 94.210445,142.24225 C 94.261151,142.39505 95.144088,145.3956 95.322364,145.86434 C 96.669544,149.40661 99.004719,151.58962 100.16291,150.07237 C 101.57583,148.22144 103.78261,145.11926 105.81578,141.06374 C 107.02628,138.64919 108.87331,134.55653 109.41124,133.20698 C 110.49279,130.49363 109.54749,127.9025 109.8307,127.0148 C 109.88563,126.84262 110.70929,126.65978 111.47531,126.48213 C 113.25727,126.06887 121.08451,122.51168 121.28958,122.42725 C 121.98914,122.13926 121.69134,122.93891 120.50391,124.54458 C 119.86725,125.40545 116.19979,130.48178 115.05745,132.32143 C 113.85701,134.25464 111.54584,137.66752 109.43787,142.70833 C 108.709,144.45128 107.31991,148.45881 106.9943,150.44523 C 106.40175,154.06035 106.3508,157.84145 106.8478,161.17835 C 107.23119,163.75233 107.4284,164.29441 108.00636,164.29442 C 108.77484,164.29442 108.84044,163.87268 108.50572,160.8987 C 108.19543,158.14161 108.38464,158.16507 108.58562,157.70274 C 109.08234,156.5601 112.53278,151.70763 112.80696,151.29748 C 113.08111,150.88733 114.97621,148.28186 115.6567,147.34914 C 116.3372,146.4164 118.65779,142.85481 118.87265,142.56185 C 119.46445,141.75491 122.90854,136.0688 123.89963,134.26564 C 124.134,133.83924 126.93765,129.22963 127.32862,128.69268 C 128.0029,127.76662 129.24891,125.27555 130.47799,122.40062 C 130.83751,121.55968 131.03728,120.70728 131.03728,120.00365 C 131.03728,119.19579 131.14816,118.80083 131.46341,118.48556 C 131.53029,118.41869 131.57391,118.42219 131.64317,118.36571 C 131.81682,118.24572 132.22978,118.02486 132.64858,117.79976 C 133.14047,117.60365 134.54756,116.95727 136.65686,115.92879 C 139.06018,114.75693 144.41494,111.79287 145.88521,110.71537 C 146.86433,109.99781 147.42392,109.66794 147.56309,109.72994 z M 128.95323,119.68405 C 129.8891,120.16288 127.99664,124.38833 125.92373,127.8604 C 125.46897,128.6221 122.09333,134.27896 121.23632,135.74378 C 119.54602,138.63288 119.05852,139.44225 118.18684,140.76411 C 117.87356,141.23916 112.67113,148.91097 111.96801,149.91923 C 111.2649,150.92748 109.44169,153.46808 109.21814,153.90753 C 109.07869,154.18169 108.94985,154.38218 108.83199,154.51343 C 108.51596,154.86522 108.30318,154.6617 108.25935,154.00074 C 108.25767,153.88138 108.25671,153.78351 108.25935,153.64785 C 108.28942,152.54067 108.93988,148.69882 109.33134,147.3558 C 110.61035,142.96785 113.75921,136.68387 117.3812,131.29606 C 118.03957,130.31671 119.62909,128.07879 120.171,127.43427 C 120.71293,126.78975 122.85545,124.47336 123.63329,123.04647 C 124.34614,121.73879 124.56885,121.18717 125.0848,120.79598 C 126.38874,119.80734 128.25756,119.48835 128.95323,119.68405 z M 107.50698,127.69394 C 108.45945,128.15109 108.38411,130.59763 107.90648,132.36139 C 107.50723,133.83572 107.37302,134.05159 103.57193,141.92265 C 102.4797,144.18438 101.76543,144.93302 100.60681,146.82286 C 100.04158,147.74482 99.286347,148.43387 98.955009,148.3992 C 98.17044,148.31711 97.028876,145.92379 96.51418,144.0533 C 96.230408,143.02202 95.750217,141.45158 95.375628,140.06499 C 95.014059,138.7266 94.581941,136.31368 94.483419,133.44668 C 94.38085,130.46223 94.184962,130.77086 96.627382,130.09091 C 97.330492,129.89518 103.30695,128.595 103.6585,128.47296 C 104.01006,128.35091 106.89499,127.80427 107.2007,127.73389 C 107.32909,127.70433 107.42555,127.69065 107.50698,127.69394 z M 144.67341,242.78869 C 146.13822,242.97623 153.91284,243.52073 155.53969,243.88065 C 156.41858,244.07508 163.25599,244.79861 165.87332,245.27888 C 166.57643,245.40791 172.20009,246.1883 172.65922,246.72511 C 173.70777,247.95109 156.29846,248.39383 146.48446,247.42284 C 144.14075,247.19096 134.99824,246.9981 130.59119,246.97673 C 126.18412,246.95539 117.08156,247.4682 114.73786,247.59596 C 112.39415,247.72371 99.695516,248.57985 98.758026,248.69457 C 97.820545,248.80928 86.645312,249.82097 85.121903,249.94632 C 83.598494,250.07167 81.345336,250.31139 80.114888,250.47899 C 77.688699,250.80947 74.742124,250.97245 68.609409,251.11152 C 66.441474,251.1607 56.976377,251.93692 55.399415,250.67207 C 54.277941,249.77255 55.587215,249.19729 57.422671,248.881 C 57.653952,248.84115 67.260521,246.76083 68.609409,246.55061 C 70.39065,246.27299 75.584627,245.27789 77.025453,244.93931 C 80.532772,244.11515 87.590683,242.9245 89.915853,242.79535 C 93.541443,242.59393 98.951236,242.23102 99.823346,242.12952 C 100.69959,242.02755 111.37612,241.86967 121.55591,241.80993 C 124.71993,241.79136 128.55243,241.55541 130.07849,241.59686 C 132.41231,241.66026 137.63188,241.88713 144.67341,242.78869 z M 175.31862,247.04249 C 175.91586,247.02239 182.98698,248.29267 184.37471,248.45597 C 189.33762,249.03999 194.08516,250.6522 194.23085,252.29669 C 194.42385,254.52037 186.55721,254.70935 184.58304,254.82683 C 182.60885,254.94434 170.93112,256.35646 169.28235,256.63788 C 168.34486,256.79789 159.18859,258.07813 158.0432,258.13599 C 154.66299,258.30673 151.89299,259.16625 150.58594,260.49967 C 149.22684,261.88512 150.05844,263.47524 150.87891,264.32817 C 152.94104,266.47186 158.59034,267.58062 158.84219,267.62401 C 161.42227,268.06853 161.69368,269.18289 161.0261,269.70138 C 159.88669,270.58633 153.56294,270.97697 153.32248,270.98644 C 152.52581,271.01584 139.61015,271.52035 135.53827,272.21156 C 132.68955,272.69514 130.95586,273.49548 130.48465,274.04257 C 127.90837,277.03368 132.34642,279.01971 134.89907,280.08827 C 136.75184,280.86385 138.36118,282.14334 137.95521,282.51855 C 137.65509,282.79592 136.05175,282.88048 134.12672,282.72495 C 131.84373,282.54051 126.08421,281.63425 123.68656,281.36001 C 121.34043,281.09166 116.41041,280.58395 113.2464,280.52107 C 108.64351,280.42961 107.0891,280.47019 105.46955,280.73414 C 100.30621,281.57563 99.489193,281.54456 98.16571,281.63133 C 97.311229,281.68735 95.497883,281.1285 96.614062,280.29469 C 96.84091,280.12523 101.7596,278.12227 102.06052,276.89897 C 102.64036,274.54181 96.535059,274.26273 91.300774,274.09445 C 90.358398,274.06415 85.60835,274.23842 83.204324,274.44206 C 81.798097,274.56119 79.407384,274.763 77.891029,274.88818 C 76.374668,275.01333 71.76805,275.66318 69.248601,275.26104 C 67.181288,274.93204 65.682887,273.98475 65.453389,272.17161 C 65.333186,271.22195 66.115529,270.7414 66.965663,270.31754 C 68.193603,269.70532 74.079837,268.65161 75.427473,268.36308 C 76.775103,268.07455 81.79473,266.66476 82.944662,266.08595 C 84.603837,265.25078 85.019296,264.76722 85.561351,264.20832 C 86.958818,262.76824 85.261444,261.00035 83.697037,260.6062 C 81.132672,259.96011 75.426029,260.27076 73.509888,260.37316 C 71.501651,260.48048 70.929191,260.68054 59.660701,261.32529 C 44.22627,262.20841 31.399963,263.4161 30.730535,259.1547 C 30.570627,258.13677 32.461897,257.50897 34.199501,256.67782 C 35.019799,256.28545 38.657875,254.58924 39.41958,254.3208 C 40.181285,254.05236 51.691623,250.16734 52.536356,250.0928 C 53.143526,249.84234 50.216443,253.77792 66.69183,252.68287 C 68.272927,252.57778 75.028804,252.37883 78.623438,252.09694 C 81.786362,251.8489 87.263199,251.28399 88.317867,251.12483 C 89.372536,250.96565 95.496776,250.26177 96.454269,250.14607 C 97.411736,250.0304 109.77345,249.24457 110.47656,249.20725 C 111.17968,249.16995 120.90074,248.5993 121.66245,248.52811 C 123.45393,248.36071 137.07614,248.345 140.94478,248.50814 C 143.75586,248.62669 145.09146,248.99184 151.06534,249.32044 C 156.72384,249.62759 163.98807,249.66032 170.53796,249.10628 C 177.11905,248.5496 174.72107,247.06261 175.31862,247.04249 z"
         style="fill:#000000;fill-opacity:1" />
    </g>
  </g>
</svg>
